# xmcd CD database file
# Copyright (C) 1993-1998 Ti Kan
#
# Track frame offsets:
# 182
# 13045
# 25355
# 33850
# 49077
# 60040
# 76077
# 98007
# 116292
# 128215
#
# Disc length: 1899 seconds
# Revision: 0
# Processed by: cddbd v1.4b41PL1 Copyright (c) Steve Scherf et al.
# Submitted via: CDSpectrumPro v3.2.328
#
DISCID=6807690a
DTITLE=Various Artist - Country Shots: God Bless America
DYEAR=1900
DGENRE=
TTITLE0=Bobby Bare - God Bless America Again
TTITLE1=Dave Dudley - Viet Nam Blues
TTITLE2=Ernest Tubb - It's America (Love it or Leave it)
TTITLE3=Glen Campbell - God Must Have Blessed America
TTITLE4=Stonewall Jackson - The Minutemen (Are Turning in Their Graves)
TTITLE5=Autry Inman - Ballad of Two Brothers
TTITLE6=Tex Ritter - Americans (A Canadian's Opinion)
TTITLE7=Bill Anderson - Where Have All Our Heroes Gone
TTITLE8=Hank Williams, Jr. - Don't Give Us a Reason
TTITLE9=Lee Greenwood - God Bless the USA
EXTD=Various Artists
EXTT0=
EXTT1=
EXTT2=
EXTT3=
EXTT4=
EXTT5=
EXTT6=
EXTT7=
EXTT8=
EXTT9=
PLAYORDER=
